<?xml version="1.0" encoding="UTF-8"?>
<svg id="Ebene_2" data-name="Ebene 2" xmlns="http://www.w3.org/2000/svg" viewBox="0 0 138.74 138.63">
  <defs>
    <style>
      .cls-1 {
        fill: #1a252f;
        stroke-width: 0px;
      }
    </style>
  </defs>
  <g id="Ebene_1-2" data-name="Ebene 1">
    <g>
      <path class="cls-1" d="M.12,69.59c0-10.16-.28-20.33.06-30.48C.92,16.82,15.71,1.26,37.88.53c20.78-.69,41.63-.72,62.41,0,21.92.76,37.12,15.98,37.91,37.98.74,20.63.72,41.33.02,61.96-.78,22.82-17.02,37.9-39.83,38.06-19.8.14-39.61.13-59.41,0-21.87-.14-37.87-15.51-38.76-37.46-.42-10.48-.07-20.98-.07-31.48,0,0-.01,0-.02,0ZM11.82,69.39c.13,0,.25,0,.38,0,0,11.15-.84,22.37.2,33.42,1.41,14.93,11.01,23.44,25.96,23.72,20.46.38,40.93.37,61.38.01,15.1-.27,25.31-9.06,26.03-24.15,1.02-21.41,1.15-42.95.14-64.35-.81-16.98-10.61-25.23-27.84-25.52-19.46-.33-38.93-.32-58.39.01-17.17.29-26.82,9.66-27.77,26.9-.55,9.96-.1,19.97-.1,29.96Z"/>
      <path class="cls-1" d="M104.66,69.37c.15,19.33-16.02,35.79-35.39,36.03-19.11.24-35.58-16.22-35.68-35.65-.1-19.47,15.91-35.8,35.31-36.01,19.11-.21,35.61,16.23,35.75,35.64ZM92.88,69.64c.05-13.07-10.78-23.92-23.83-23.88-12.88.03-23.56,10.57-23.78,23.46-.22,13,10.46,23.92,23.61,24.13,12.98.21,23.95-10.63,24-23.71Z"/>
      <path class="cls-1" d="M114.54,31.82c.14,4.16-3.42,8.11-7.56,8.38-4.45.29-8.23-3.33-8.35-7.98-.11-4.52,3.06-7.73,7.7-7.81,4.7-.08,8.05,2.96,8.2,7.41Z"/>
    </g>
  </g>
</svg>