<?xml version="1.0" encoding="UTF-8"?>
<svg id="Ebene_2" data-name="Ebene 2" xmlns="http://www.w3.org/2000/svg" viewBox="0 0 239.13 179.62">
  <defs>
    <style>
      .cls-1 {
        fill: #2c3e50;
      }

      .cls-1, .cls-2 {
        stroke-width: 0px;
      }

      .cls-2 {
        fill: #fff;
      }
    </style>
  </defs>
  <g id="Ebene_1-2" data-name="Ebene 1">
    <g>
      <path class="cls-2" d="M0,53.21C0,85.53,0,116.51,0,147.49c0,19.39,12.85,32.13,32.36,32.13,57.98,0,115.95,0,173.93,0,20.27,0,32.82-12.44,32.82-32.59.01-29.66,0-59.31,0-88.97,0-1.23-.2-2.47-.35-4.3-1.75,1.16-2.99,1.91-4.14,2.77-32.12,24.03-64.22,48.09-96.36,72.11-11.64,8.7-25.37,8.79-37.03.11-24.57-18.29-49.04-36.7-73.58-55.04C18.78,67.08,9.85,60.51,0,53.21ZM119.45.02C87.97.02,56.49-.03,25.01.04,12.63.07,4.51,5.49,1.34,15.43c-3.34,10.48-.2,18.69,9.91,26.3,32.33,24.31,64.64,48.63,96.94,72.98,8.08,6.09,14.65,6.15,22.67.1,15.54-11.73,31.08-23.45,46.63-35.15,17.43-13.11,34.9-26.16,52.3-39.3,10.16-7.67,12.27-20.82,5.08-30.99C229.48,1.7,221.49.04,212.88.03c-31.14-.04-62.29-.01-93.43-.01Z"/>
      <path class="cls-1" d="M0,53.21c9.85,7.3,18.78,13.86,27.66,20.5,24.53,18.34,49.01,36.75,73.58,55.04,11.66,8.68,25.39,8.58,37.03-.11,32.14-24.01,64.23-48.08,96.36-72.11,1.15-.86,2.4-1.61,4.14-2.77.16,1.83.35,3.07.35,4.3.02,29.66.02,59.31,0,88.97,0,20.14-12.55,32.59-32.82,32.59-57.98,0-115.95,0-173.93,0C12.86,179.62.02,166.88,0,147.49,0,116.51,0,85.53,0,53.21Z"/>
      <path class="cls-1" d="M119.45.02c31.14,0,62.29-.02,93.43.01,8.61.01,16.6,1.67,22,9.32,7.19,10.18,5.07,23.33-5.08,30.99-17.4,13.14-34.87,26.19-52.3,39.3-15.56,11.7-31.09,23.43-46.63,35.15-8.02,6.05-14.59,5.99-22.67-.1C75.9,90.36,43.58,66.03,11.26,41.72,1.14,34.12-2,25.91,1.34,15.43,4.51,5.49,12.63.07,25.01.04c31.48-.08,62.96-.03,94.43-.03Z"/>
    </g>
  </g>
</svg>