<?xml version="1.0" encoding="UTF-8"?>
<svg id="Ebene_2" data-name="Ebene 2" xmlns="http://www.w3.org/2000/svg" viewBox="0 0 29.01 20.96">
  <defs>
    <style>
      .cls-1 {
        fill: #fff;
        stroke-width: 0px;
      }
    </style>
  </defs>
  <g id="Ebene_1-2" data-name="Ebene 1">
    <g>
      <g>
        <path class="cls-1" d="M0,17.38c.02-.18.12-.53.13-.58.22-.65.62-1.15,1.19-1.52.49-.32,1.03-.53,1.6-.67.43-.12.88-.19,1.32-.22.35-.02.7-.04,1.06-.05.05-.01.1-.02.13-.05,1.4-.8,2.87-1.46,4.34-2.11.71-.3,1.42-.64,2.12-.95.1-.05.17-.11.23-.2.36-.56.73-1.12,1.15-1.64.42-.52.89-.98,1.42-1.38.19-.14.41-.28.61-.4.19-.11.41-.14.62-.14.25,0,.42.19.38.44-.02.22-.12.41-.24.59-.24.36-.54.67-.88.94-.5.41-1.06.74-1.62,1.06-.23.13-.47.25-.7.37-.08.05-.16.11-.2.19-.36.58-.73,1.14-1.09,1.73-.4.62-.77,1.25-1.21,1.83-.01.01-.01.02-.02.04.24.05,1.2-.1,1.45-.2-.01.02-.02.06-.05.07-.08.02-.17.05-.25.06-.14.04-.29.06-.42.08-.25.02-.5.05-.74.08-.05,0-.1.04-.12.07-.35.42-.7.84-1.04,1.26-1.16,1.4-2.59,2.45-4.28,3.14-.6.25-1.22.41-1.88.44-.56.04-1.12-.06-1.64-.29-.05-.02-.08-.04-.14-.06-.01.04-.02.06-.04.08-.06.32-.07.65-.04.97.04.2.1.38.26.53-.05.07-.11.06-.14.02-.06-.05-.12-.11-.14-.18-.05-.11-.08-.23-.11-.35-.06-.32-.04-.65.04-.96.04-.24.04-.22-.13-.31-.18-.1-.34-.25-.48-.41-.12-.13-.22-.28-.29-.44-.01-.04-.1-.16-.13-.36-.02-.26-.02-.29-.01-.54ZM1.12,19.07s.02-.06.04-.1c.31-1.01.88-1.87,1.6-2.64.67-.71,1.44-1.28,2.27-1.8.04-.02.08-.05.13-.07-.01-.01-.01-.02-.01-.04h-.11c-.19.01-.37.02-.56.04-.56.02-1.13.1-1.67.26-.52.16-1.02.35-1.45.66-.72.5-1.14,1.16-1.2,2.05-.05.67.34,1.32.97,1.63ZM9.78,14.77s-.05-.01-.07,0c-.37.01-.74-.04-1.12-.07-.65-.07-1.28-.13-1.92-.19-.32-.04-.66-.06-1-.08-.14-.01-.29.01-.42.1-.19.14-.4.25-.59.38-.92.61-1.52,1.13-2.43,2.25-.42.58-.76,1.19-.96,1.87q-.04.13.1.19c.4.19.8.28,1.24.3.58.04,1.13-.07,1.68-.25.64-.2,1.22-.49,1.79-.84.7-.42,1.34-.91,1.92-1.49.62-.62,1.18-1.32,1.7-2.04.04-.04.06-.07.08-.13ZM5.64,14.3s.01.02.01.05c.08,0,.17-.01.25,0,.31.02.61.06.91.08.59.04,1.18.1,1.76.18.36.05.71.06,1.07.08.14.01.24-.02.32-.16.14-.24.32-.47.48-.72.48-.79.95-1.59,1.42-2.39.01-.01.01-.04.02-.07-.05.02-.08.04-.12.05-.79.35-1.57.71-2.35,1.04-1.22.54-2.45,1.1-3.61,1.75-.06.04-.11.06-.17.1ZM12.92,10.69s.01.01.02.02c.02-.01.06-.02.08-.04.4-.23.78-.43,1.16-.66.47-.29.9-.6,1.28-.98.22-.23.41-.47.55-.74.05-.1.08-.2.11-.31.02-.16-.07-.25-.23-.23-.12.02-.24.06-.35.12-.18.11-.36.23-.52.37-.6.52-1.13,1.1-1.61,1.73-.18.23-.35.48-.52.72Z"/>
        <path class="cls-1" d="M13.36,8.57c.04-.07.05-.07.17-.06-.02.05-.05.08-.07.12-.12.23-.08.46.1.64.23.23.5.3.82.2.25-.1.52-.19.77-.3.53-.23,1.06-.47,1.58-.71.41-.18.82-.35,1.26-.42.12-.02.26-.01.37.02.16.06.25.18.24.36-.01.13-.05.26-.08.38-.14.37-.36.71-.58,1.04-.41.6-.86,1.16-1.33,1.72-.46.56-.91,1.12-1.36,1.69-.42.56-.8,1.14-1.1,1.79-.11.23-.2.46-.25.71-.01.06-.01.13-.01.2.01.08.05.11.13.07.12-.05.23-.1.32-.17.5-.31.95-.7,1.37-1.12.78-.78,1.6-1.52,2.45-2.23.17-.14.35-.28.53-.41.08-.06.17-.1.25-.13.19-.06.34.04.31.24-.01.12-.05.24-.1.35-.22.44-.42.89-.66,1.32-.4.72-.8,1.43-1.21,2.15-.29.52-.55,1.04-.74,1.61-.14.43-.25.88-.31,1.34-.01.22-.02.44.05.66.04.13.11.25.25.31.1.06.2.07.31.04.13-.05.25-.11.37-.17.31-.19.59-.44.84-.7.46-.47.86-.97,1.26-1.48.66-.82,1.3-1.64,1.94-2.46.78-.98,1.63-1.91,2.54-2.78.82-.78,1.68-1.52,2.61-2.17.41-.28.83-.53,1.28-.73.24-.11.5-.18.77-.23.28-.05.49.08.55.34.01.06,0,.12-.01.18-.01.05-.05.07-.1.05-.01-.01-.04-.06-.04-.08.05-.13-.02-.23-.12-.32-.05-.06-.12-.07-.2-.06-.41.05-.78.2-1.13.4-.54.28-1.02.62-1.5,1-.83.64-1.59,1.34-2.34,2.07-1.06,1.04-1.98,2.18-2.89,3.35-.74.96-1.5,1.9-2.33,2.77-.31.34-.64.65-1.03.9-.13.08-.28.16-.42.2-.16.05-.32.02-.47-.04s-.24-.17-.31-.3c-.1-.22-.12-.44-.11-.68.01-.79.19-1.56.49-2.3.32-.78.76-1.5,1.16-2.24.41-.72.8-1.44,1.2-2.16.04-.07.06-.13.1-.2-.01-.01-.01-.02-.02-.02-.05.01-.1.02-.14.06-.17.12-.36.24-.53.37-.83.66-1.62,1.38-2.36,2.13-.43.46-.9.86-1.42,1.21-.13.07-.25.16-.4.2-.22.1-.37,0-.38-.25-.01-.29.08-.56.18-.83.25-.68.61-1.31,1.01-1.91.47-.7,1-1.33,1.52-1.98.5-.62,1.01-1.24,1.44-1.92.13-.19.23-.4.35-.6.02-.06.05-.12.06-.18.07-.19,0-.29-.2-.26-.13.01-.26.04-.4.07-.47.12-.91.32-1.34.52-.49.22-.98.44-1.48.66-.14.06-.28.11-.42.14-.24.06-.47.05-.7-.04-.19-.08-.34-.22-.43-.41-.08-.19-.06-.37.05-.54h.01Z"/>
      </g>
      <path class="cls-1" d="M3.3,3.32c1.11-.21,2.48.27,3.41-.48.53-.62,1.11-1.47,1.62-2.15C8.9-.16,10.05.01,10.93.02c0,0,1.81.02,1.81.02l1.81.02c.54.01,1.33-.05,1.77.33.98.73.84,2.38,2.06,2.84.48.18,1.26.06,1.77.09.64,0,2.11-.06,2.73,0,1.03.13,1.58,1.22,1.42,2.16,0,1.06-.14,2.58.02,3.62,0,0-.25,0-.25,0,.12-.6.06-1.21.06-1.81-.04-.61.02-2.12-.11-2.68-.25-.93-1.19-1.19-2.06-1.11,0,0-1.81-.02-1.81-.02-.55-.04-1.3.08-1.82-.13-1.24-.47-1.1-2.17-2.05-2.91-.49-.39-1.13-.28-1.73-.29l-1.81.02-1.81.02c-.49.04-1.31-.08-1.76.13-1.3.62-1.59,2.85-3.13,3.19-.94.07-1.81,0-2.74-.05,0,0,0-.13,0-.13h0Z"/>
      <path class="cls-1" d="M16.14,4.73c-2.95-2.7-8.28-1.12-9.27,2.74,0,0-.24-.07-.24-.07.67-1.89,1.89-3.8,3.99-4.28,1.86-.57,4.52,0,5.52,1.61h0Z"/>
    </g>
  </g>
</svg>