<?xml version="1.0" encoding="UTF-8"?>
<svg id="Ebene_2" data-name="Ebene 2" xmlns="http://www.w3.org/2000/svg" viewBox="0 0 148.02 147.97">
  <defs>
    <style>
      .cls-1 {
        fill: #fff;
        stroke-width: 0px;
      }
    </style>
  </defs>
  <g id="Ebene_1-2" data-name="Ebene 1">
    <g>
      <path class="cls-1" d="m74.07,0C33.3-.02,0,33.32,0,74.18c-.01,40.65,33.2,73.8,73.93,73.79,40.79,0,74.02-33.05,74.09-73.65C148.08,33.52,114.75.02,74.07,0Zm-.06,140.49c-35.94,0-65.08-29.7-65.08-66.34S38.07,7.81,74.01,7.81s65.07,29.7,65.07,66.34-29.14,66.34-65.07,66.34Z"/>
      <path class="cls-1" d="m102.24,80.44c-13.33,8.24-26.71,16.42-40.13,24.51-5.59,3.38-10.87.32-10.9-6.17-.04-8.28-.01-16.56-.01-24.83s-.02-16.31.01-24.47c.02-6.61,5.02-9.51,10.83-6.06,9.35,5.53,18.56,11.29,27.83,16.96,4.11,2.5,8.27,4.93,12.32,7.53,5.34,3.42,5.39,9.24.05,12.53Z"/>
    </g>
  </g>
</svg>