<?xml version="1.0" encoding="UTF-8"?>
<svg id="Ebene_2" data-name="Ebene 2" xmlns="http://www.w3.org/2000/svg" viewBox="0 0 139.54 135.73">
  <defs>
    <style>
      .cls-1 {
        fill: #fff;
        stroke-width: 0px;
      }
    </style>
  </defs>
  <g id="Ebene_1-2" data-name="Ebene 1">
    <path class="cls-1" d="m72.59,3.09c-10.25-5.49-22.34-2.59-32.89.38s-21.84,7.16-31.07,13.9C4.65,20.28-.1,24.15,0,29.58c.09,4.94,4.19,8.38,8.16,10.61,4.55,2.55,9.51,4.47,14.31,6.5s9.92,4.12,14.81,6.34c9.45,4.28,18.77,9.3,26.31,16.53,3.92,3.76,7.46,8.11,9.54,13.17s2.38,10.39,1.15,15.6c-2.51,10.67-10.22,19.53-19,25.74-4.57,3.23-9.62,5.96-14.93,7.76-2.51.85-5.66,1.64-8.07.08-2.01-1.31-2.87-3.86-2.92-6.16-.07-3.17,1.07-6.26,2.04-9.23s1.94-5.8,2.97-8.69c2.07-5.77,4.27-11.5,6.44-17.23,4.27-11.27,8.43-22.63,11.16-34.39.69-2.97,1.28-5.96,1.76-8.97l-2.95-.4c-.78,17.06.13,34.17,2.7,51.06,1.23,8.12,2.55,16.47,5.34,24.23,1.12,3.12,2.43,6.45,4.86,8.81s5.68,3.11,8.78,1.8,5.44-4.13,7.23-6.97c1.93-3.06,3.34-6.45,4.36-9.91,2.15-7.31,2.7-15.08,2.96-22.66.3-8.58-.04-17.19-1.03-25.72-.46-3.98-1.06-7.96-1.99-11.87-.48-2.03-1.05-4.04-1.74-6.02-.54-1.55-1.03-3.62-2.19-4.85-2.28-2.41-5.92-.3-6.96,2.23s-.38,5.49,1.46,7.38c2.19,2.24,5.74,2.43,8.52,1.32,3.26-1.3,5.37-4.12,6.5-7.37.58-1.66.85-3.4,1.03-5.14.12-1.16-1.35-1.83-2.26-1.3-3.82,2.26-5.05,6.71-5.95,10.77-1.14,5.19-1.82,10.48-2.27,15.77s-.7,10.75-.89,16.13-.26,11.19.23,16.77c.42,4.73,1.09,10.1,4.96,13.36.71.6,1.86.61,2.36-.3,3.71-6.83,6.54-14.14,8.32-21.71,1.57-6.67,2.87-14.02,1.39-20.82-.74-3.39-2.37-6.59-5.06-8.85l-.3,2.36c15.84-8.99,31.72-17.9,47.65-26.72,1.69-.94.18-3.53-1.51-2.59-15.93,8.82-31.82,17.73-47.65,26.72-.78.45-1.05,1.73-.3,2.36,6.11,5.13,5.14,14.44,3.96,21.47-1.55,9.2-4.63,18.08-9.08,26.28l2.36-.3c-3.12-2.63-3.67-6.92-4.03-10.75-.48-5.08-.48-10.19-.34-15.29.28-9.94.67-19.99,2.46-29.79.73-4.01,1.33-9.95,5.22-12.26l-2.26-1.3c-.31,2.98-1.15,6.23-3.42,8.35-1.8,1.68-5.07,2.67-7.2,1.01-1.41-1.1-1.93-3.68-.72-5.1.27-.32.78-.74,1.23-.71.57.04.68.6.88,1.07.72,1.7,1.3,3.48,1.83,5.26,2.05,6.97,2.91,14.26,3.44,21.49s.61,14.74.2,22.1c-.36,6.47-1,13-2.94,19.21-.92,2.95-2.16,5.78-3.81,8.4-1.53,2.41-3.58,5.16-6.48,5.97-6.1,1.7-8.77-8.1-9.98-12.18-2.07-6.97-3.26-14.25-4.34-21.43-2.47-16.46-3.27-33.16-2.52-49.78.08-1.66-2.67-2.09-2.95-.4-3.95,24.51-15.2,46.89-22.68,70.37-1.66,5.21-3.2,11.45.74,16.07s10.27,2.74,15.04.8c10.43-4.25,20.03-11.21,26.62-20.42,6.18-8.63,9.59-19.83,5.91-30.17s-12.36-18.08-21.24-23.87-18.95-9.96-28.8-14.09c-4.98-2.09-9.99-4.16-14.84-6.53-3.72-1.82-9.08-4.88-8.55-9.78.28-2.59,2.18-4.71,4.02-6.38,2.08-1.89,4.44-3.5,6.82-4.99,4.93-3.1,10.24-5.56,15.71-7.57s11.07-3.67,16.73-5.04,11.23-2.32,16.88-1.62c2.76.34,5.44,1.16,7.89,2.47,1.7.91,3.22-1.68,1.51-2.59h0Z"/>
  </g>
</svg>